# xmcd
#
# Track frame offsets: 
#        150
#        19350
#        44263
#        58552
#        87767
#        109559
#        132261
#        164539
#        184276
#
# Disc length: 2928 seconds
#
# Revision: 0
# Processed by: cddbd v1.5.2PL0 Copyright (c) Steve Scherf et al.
# Submitted via: ExactAudioCopy v0.99pb4
#
DISCID=740b6e09
DTITLE=Siegel-Schwall - The Reunion Concert
DYEAR=1988
DGENRE=Blues
TTITLE0=You Don't Love Me Like That
TTITLE1=Devil
TTITLE2=Leavin'
TTITLE3=Hey, Billie Jean
TTITLE4=I Wanna Love Ya
TTITLE5=I Think It Was the Wine
TTITLE6=I Don't Want You To Be My Girl
TTITLE7=When I've Been Drinkin'
TTITLE8=Hush, Hush
EXTD=
EXTT0=
EXTT1=
EXTT2=
EXTT3=
EXTT4=
EXTT5=
EXTT6=
EXTT7=
EXTT8=
PLAYORDER=
